<svg xmlns="http://www.w3.org/2000/svg" viewBox="0 0 600 360"><defs><linearGradient id="b" x2="1" y2="1"><stop stop-color="#e6ebea"/><stop offset="1" stop-color="#dce5e1"/></linearGradient><linearGradient id="o" x1="0" y1="0" x2="1" y2="1"><stop stop-color="#edb38d"/><stop offset="1" stop-color="#b67953"/></linearGradient><filter id="s"><feDropShadow dx="2" dy="7" stdDeviation="6" flood-color="#384f43" flood-opacity=".12"/></filter></defs><rect width="600" height="360" fill="url(#b)"/><ellipse cx="315" cy="295" rx="130" ry="20" fill="#c8d5ce"/><g filter="url(#s)"><path d="M243 266v-72q0-26 21-26h69q22 0 22 22v72Z" fill="#f8f7f0" stroke="#c6d1c5" stroke-width="2"/><path d="M262 169v-54q0-13 11-13t11 13v53m14 0V96q0-13 11-13t11 13v72m12 2v-61q0-12 10-12t10 12v77m-109 35-26-43q-5-12 5-17t17 7l27 34" fill="none" stroke="#69836d" stroke-width="20" stroke-linecap="round"/><path d="M262 169v-47m36 46v-59m34 61v-48m-89 99-22-36" fill="none" stroke="#f8f7f0" stroke-width="13" stroke-linecap="round"/><rect x="257" y="263" width="85" height="23" rx="7" fill="#748f77"/><rect x="270" y="197" width="50" height="45" rx="11" fill="#b5c5b2"/><circle cx="390" cy="146" r="43" fill="url(#o)"/></g><g stroke="#7c9981" fill="none" stroke-width="1.5"><path d="m290 161 61-18m-28 39 40-10m-44 56 64-39" stroke-dasharray="4 5"/><path d="M342 82h-13v14m99-14h14v14m0 99v14h-14"/></g><g fill="#f5f9ec" stroke="#6c8a70" stroke-width="2"><circle cx="351" cy="143" r="4"/><circle cx="363" cy="172" r="4"/><circle cx="383" cy="189" r="4"/></g><text x="390" y="62" fill="#627868" font-family="Arial,sans-serif" font-size="11" letter-spacing="2" text-anchor="middle">AFFORDANCE</text></svg>